<mxfile host="app.diagrams.net" modified="2024-03-14T16:18:55.467Z" agent="Mozilla/5.0 (Windows NT 10.0; Win64; x64; rv:123.0) Gecko/20100101 Firefox/123.0" etag="_SXgVpslrvuuxb7XBMi5" version="24.0.6" type="github">
  <diagram name="Page-1" id="wbuX0TBASzJWtCFyLL9F">
    <mxGraphModel dx="712" dy="781" grid="1" gridSize="10" guides="1" tooltips="1" connect="1" arrows="1" fold="1" page="1" pageScale="1" pageWidth="850" pageHeight="1100" math="0" shadow="0">
      <root>
        <mxCell id="0" />
        <mxCell id="1" parent="0" />
        <mxCell id="r0l5JY0mena3srKl9l_J-3" value="" style="edgeStyle=orthogonalEdgeStyle;rounded=0;orthogonalLoop=1;jettySize=auto;html=1;" edge="1" parent="1" source="r0l5JY0mena3srKl9l_J-1" target="r0l5JY0mena3srKl9l_J-2">
          <mxGeometry relative="1" as="geometry" />
        </mxCell>
        <mxCell id="r0l5JY0mena3srKl9l_J-1" value="START" style="strokeWidth=2;html=1;shape=mxgraph.flowchart.start_1;whiteSpace=wrap;" vertex="1" parent="1">
          <mxGeometry x="330" y="50" width="120" height="50" as="geometry" />
        </mxCell>
        <mxCell id="r0l5JY0mena3srKl9l_J-5" value="" style="edgeStyle=orthogonalEdgeStyle;rounded=0;orthogonalLoop=1;jettySize=auto;html=1;" edge="1" parent="1" source="r0l5JY0mena3srKl9l_J-2" target="r0l5JY0mena3srKl9l_J-4">
          <mxGeometry relative="1" as="geometry" />
        </mxCell>
        <mxCell id="r0l5JY0mena3srKl9l_J-2" value="&lt;div&gt;Generate Random Word&lt;/div&gt;" style="rounded=1;whiteSpace=wrap;html=1;absoluteArcSize=1;arcSize=14;strokeWidth=2;" vertex="1" parent="1">
          <mxGeometry x="340" y="150" width="100" height="80" as="geometry" />
        </mxCell>
        <mxCell id="r0l5JY0mena3srKl9l_J-7" value="" style="edgeStyle=orthogonalEdgeStyle;rounded=0;orthogonalLoop=1;jettySize=auto;html=1;" edge="1" parent="1" source="r0l5JY0mena3srKl9l_J-4" target="r0l5JY0mena3srKl9l_J-6">
          <mxGeometry relative="1" as="geometry" />
        </mxCell>
        <mxCell id="r0l5JY0mena3srKl9l_J-4" value="Generate as many blanks as letters in word" style="rounded=1;whiteSpace=wrap;html=1;absoluteArcSize=1;arcSize=14;strokeWidth=2;" vertex="1" parent="1">
          <mxGeometry x="340" y="280" width="100" height="80" as="geometry" />
        </mxCell>
        <mxCell id="r0l5JY0mena3srKl9l_J-9" value="" style="edgeStyle=orthogonalEdgeStyle;rounded=0;orthogonalLoop=1;jettySize=auto;html=1;" edge="1" parent="1" source="r0l5JY0mena3srKl9l_J-6" target="r0l5JY0mena3srKl9l_J-8">
          <mxGeometry relative="1" as="geometry" />
        </mxCell>
        <mxCell id="r0l5JY0mena3srKl9l_J-6" value="Ask User Guess a Letter" style="rounded=1;whiteSpace=wrap;html=1;absoluteArcSize=1;arcSize=14;strokeWidth=2;" vertex="1" parent="1">
          <mxGeometry x="340" y="400" width="100" height="70" as="geometry" />
        </mxCell>
        <mxCell id="r0l5JY0mena3srKl9l_J-21" style="edgeStyle=orthogonalEdgeStyle;rounded=0;orthogonalLoop=1;jettySize=auto;html=1;entryX=0.5;entryY=0;entryDx=0;entryDy=0;" edge="1" parent="1" source="r0l5JY0mena3srKl9l_J-8" target="r0l5JY0mena3srKl9l_J-19">
          <mxGeometry relative="1" as="geometry" />
        </mxCell>
        <mxCell id="r0l5JY0mena3srKl9l_J-8" value="Is Guessed Letter in the Word?" style="strokeWidth=2;html=1;shape=mxgraph.flowchart.decision;whiteSpace=wrap;" vertex="1" parent="1">
          <mxGeometry x="310" y="520" width="160" height="140" as="geometry" />
        </mxCell>
        <mxCell id="r0l5JY0mena3srKl9l_J-10" value="Replace blank with Letter" style="rounded=1;whiteSpace=wrap;html=1;absoluteArcSize=1;arcSize=14;strokeWidth=2;" vertex="1" parent="1">
          <mxGeometry x="165" y="740" width="100" height="100" as="geometry" />
        </mxCell>
        <mxCell id="r0l5JY0mena3srKl9l_J-17" value="YES" style="text;html=1;align=center;verticalAlign=middle;whiteSpace=wrap;rounded=0;" vertex="1" parent="1">
          <mxGeometry x="120" y="620" width="80" height="50" as="geometry" />
        </mxCell>
        <mxCell id="r0l5JY0mena3srKl9l_J-18" style="edgeStyle=orthogonalEdgeStyle;rounded=0;orthogonalLoop=1;jettySize=auto;html=1;entryX=0.41;entryY=-0.03;entryDx=0;entryDy=0;entryPerimeter=0;" edge="1" parent="1" source="r0l5JY0mena3srKl9l_J-8" target="r0l5JY0mena3srKl9l_J-10">
          <mxGeometry relative="1" as="geometry" />
        </mxCell>
        <mxCell id="r0l5JY0mena3srKl9l_J-19" value="Lose a Life" style="rounded=1;whiteSpace=wrap;html=1;absoluteArcSize=1;arcSize=14;strokeWidth=2;" vertex="1" parent="1">
          <mxGeometry x="530" y="740" width="100" height="100" as="geometry" />
        </mxCell>
        <mxCell id="r0l5JY0mena3srKl9l_J-22" value="NO" style="text;html=1;align=center;verticalAlign=middle;whiteSpace=wrap;rounded=0;" vertex="1" parent="1">
          <mxGeometry x="600" y="620" width="80" height="50" as="geometry" />
        </mxCell>
      </root>
    </mxGraphModel>
  </diagram>
</mxfile>
